
<svg xmlns="http://www.w3.org/2000/svg" viewBox="0 0 430 140" fill="#DB2674"><path d="M1825.355 1165.355a50 50 0 01-70.71 0l14.142-14.142a30 30 0 100-42.426l-14.142-14.142a50 50 0 0170.71 70.71zM1690 1080v20a30 30 0 11-30 30h-20a50 50 0 1050-50zm190.486-4.194h12.071v-26.445h10.487V1040H1870v9.361h10.486zm50.737-35.806v12.686h-11.152V1040H1908v35.806h12.071v-13.2h11.152v13.2h12.071V1040zm16.706 35.806H1960V1040h-12.071zm38.5 0h12.89l-7.519-11.049a12.282 12.282 0 005.013-4.552 12.659 12.659 0 001.739-6.7 12.387 12.387 0 00-7.673-11.867 21.138 21.138 0 00-8.644-1.637H1965v35.806h12.071v-9h3.274zm-.051-22.3a3.938 3.938 0 01-1.228 3.095 5.365 5.365 0 01-3.682 1.1h-4.4v-8.388h4.4a5.37 5.37 0 013.682 1.1 3.936 3.936 0 011.231 3.087zm23.982 22.3h12.071v-26.445h10.486V1040h-33.044v9.361h10.487zM2070 1040h-11.662l-7.366 12.379-7.315-12.379h-12.737l13.5 22.66v13.146h12.08v-12.992zm-170.588 60.793v-9.1h-29.1v35.806h12.071v-11.458h14.937v-9.1h-14.937v-6.138zm4.552 26.7h12.072v-35.806h-12.072zm46.169-35.806l-8.747 20.921-8.543-20.921h-12.992l15.141 35.806h11.867l15.141-35.805zm21.734 26.7v-4.706h15.141v-8.7h-15.141v-4.194h17.233v-9.1H1960v35.806h29.77v-9.1zM1887.443 1180q8.235 0 12.838-4.45t4.6-12.481v-19.693h-11.867v19.335q0 3.939-1.407 5.729a5.514 5.514 0 01-8.133 0q-1.407-1.791-1.406-5.729v-19.335H1870v19.693q0 8.031 4.6 12.481t12.843 4.45zm39.8-36.624H1910v35.806h12.071v-8.8h5.167a21.12 21.12 0 008.644-1.637 12.9 12.9 0 000-23.734 21.138 21.138 0 00-8.644-1.635zm-.767 17.7h-4.4v-8.389h4.4a5.37 5.37 0 013.682 1.1 4.513 4.513 0 010 6.189 5.365 5.365 0 01-3.687 1.098zM1720 1040h-80v20h80zm120 0h-80v20h80z" transform="translate(-1640 -1040)"/></svg>
