<?xml version="1.0" encoding="UTF-8" standalone="no"?><!-- Generator: Gravit.io --><svg xmlns="http://www.w3.org/2000/svg" xmlns:xlink="http://www.w3.org/1999/xlink" style="isolation:isolate" viewBox="0 0 860.1 280" width="860.1pt" height="280pt"><defs><clipPath id="_clipPath_7A0ipLYK3SJ1sq4NBjzKMRMLbYGD821z"><rect width="860.1" height="280"/></clipPath></defs><g clip-path="url(#_clipPath_7A0ipLYK3SJ1sq4NBjzKMRMLbYGD821z)"><clipPath id="_clipPath_j1XULXptUL0XsnIlB6whJe8uozH8LrKa"><path d=" M 506.06 206.761 L 506.06 245.401 Q 506.06 253.281 503.25 256.861 C 501.37 259.241 498.66 260.441 495.11 260.441 C 491.56 260.441 488.85 259.241 486.98 256.861 C 485.11 254.481 484.17 250.651 484.17 245.401 L 484.17 206.761 L 460 206.761 L 460 246.141 Q 460 262.211 469.21 271.141 Q 478.42 280.071 494.89 280.041 Q 511.36 280.041 520.57 271.141 Q 529.78 262.241 529.77 246.141 L 529.77 206.761 L 506.06 206.761 Z M 564.15 225.401 L 572.94 225.401 C 576.22 225.401 578.67 226.131 580.31 227.601 C 583.593 231.071 583.593 236.501 580.31 239.971 C 578.67 241.441 576.22 242.171 572.94 242.171 L 564.15 242.171 L 564.15 225.401 Z M 540 206.781 L 540 278.401 L 564.15 278.401 L 564.15 260.801 L 574.48 260.801 C 580.409 260.934 586.299 259.82 591.77 257.531 C 601.283 253.477 607.456 244.136 607.456 233.796 C 607.456 223.455 601.283 214.114 591.77 210.061 C 586.299 207.772 580.409 206.658 574.48 206.791 L 540 206.781 Z M 460.62 103.401 L 460.62 175.011 L 484.76 175.011 L 484.76 152.081 L 514.63 152.081 L 514.63 133.871 L 484.76 133.871 L 484.76 121.591 L 518.83 121.591 L 518.83 103.401 L 460.62 103.401 Z M 527.93 175.011 L 552.06 175.011 L 552.06 103.401 L 527.92 103.401 L 527.93 175.011 Z M 640 103.401 L 620.27 103.401 L 602.77 145.241 L 585.69 103.401 L 559.69 103.401 L 589.97 175.011 L 613.7 175.011 L 639.98 112.861 L 639.98 175.011 L 699.52 175.011 L 699.52 156.781 L 663.72 156.781 L 663.72 147.401 L 694.06 147.401 L 694.06 129.981 L 663.78 129.981 L 663.78 121.591 L 698.25 121.591 L 698.25 103.401 L 640 103.401 Z M 100 120.031 C 133.137 120.031 160 146.894 160 180.031 C 160 213.168 133.137 240.031 100 240.031 C 66.863 240.031 40 213.168 40 180.031 L 0 180.031 C 0 235.259 44.772 280.031 100 280.031 C 155.228 280.031 200 235.259 200 180.031 C 200 124.802 155.228 80.031 100 80.031 L 100 120.031 Z M 229.29 109.311 L 257.58 137.601 C 274.74 120.44 300.547 115.306 322.968 124.593 C 345.389 133.879 360.008 155.758 360.008 180.026 C 360.008 204.294 345.389 226.172 322.968 235.459 C 300.547 244.745 274.74 239.611 257.58 222.451 L 229.29 250.741 C 268.344 289.79 331.658 289.787 370.708 250.735 C 409.759 211.683 409.759 148.369 370.708 109.316 C 331.658 70.264 268.344 70.262 229.29 109.311 M 0 40.011 L 160 40.011 L 160 0.011 L 0 0.011 L 0 40.011 Z M 240 40.011 L 400 40.011 L 400 0.011 L 240 0.011 L 240 40.011 Z M 460 0.011 L 460 18.731 L 481 18.731 L 481 71.621 L 505.14 71.621 L 505.14 18.731 L 526.14 18.731 L 526.14 0.011 L 460 0.011 Z M 582.45 0.011 L 582.45 25.401 L 560.15 25.401 L 560.15 0.011 L 536 0.011 L 536 71.621 L 560.15 71.621 L 560.15 45.221 L 582.45 45.221 L 582.45 71.621 L 606.59 71.621 L 606.59 0.011 L 582.45 0.011 Z M 615.86 71.621 L 640 71.621 L 640 0.011 L 615.86 0.011 L 615.86 71.621 Z M 674.15 18.621 L 682.94 18.621 C 686.22 18.621 688.67 19.361 690.31 20.831 C 693.593 24.301 693.593 29.731 690.31 33.201 C 688.67 34.671 686.22 35.401 682.94 35.401 L 674.15 35.401 L 674.15 18.621 Z M 650 0.011 L 650 71.621 L 674.15 71.621 L 674.15 53.621 L 680.69 53.621 L 692.87 71.621 L 718.65 71.621 L 703.65 49.521 C 707.768 47.481 711.232 44.329 713.65 40.421 C 716.026 36.358 717.228 31.716 717.12 27.011 C 717.462 16.674 711.346 7.212 701.78 3.281 C 696.309 0.992 690.419 -0.122 684.49 0.011 L 650 0.011 Z M 836.68 0.011 L 821.95 24.761 L 807.32 0.011 L 719.76 0.011 L 719.76 18.731 L 740.76 18.731 L 740.76 71.621 L 764.9 71.621 L 764.9 18.731 L 785.9 18.731 L 785.9 6.731 L 808.9 45.341 L 808.9 71.631 L 833.05 71.631 L 833.05 45.631 L 860.05 0.011 L 836.68 0.011 Z " fill="rgb(255,255,255)"/></clipPath><g clip-path="url(#_clipPath_j1XULXptUL0XsnIlB6whJe8uozH8LrKa)"><g><linearGradient id="_lgradient_0" x1="0.0038521275276023337" y1="0.4929346234957108" x2="1.0035543977174046" y2="0.4929346234957108" gradientTransform="matrix(1098.848,0,0,1098.848,-302.365,-379.029)" gradientUnits="userSpaceOnUse"><stop offset="0%" stop-opacity="1" style="stop-color:rgb(46,166,223)"/><stop offset="1%" stop-opacity="1" style="stop-color:rgb(46,166,223)"/><stop offset="25%" stop-opacity="1" style="stop-color:rgb(93,53,223)"/><stop offset="50%" stop-opacity="1" style="stop-color:rgb(207,13,174)"/><stop offset="75%" stop-opacity="1" style="stop-color:rgb(255,78,154)"/><stop offset="100%" stop-opacity="1" style="stop-color:rgb(255,220,149)"/></linearGradient><rect x="-302.365" y="-379.029" width="1098.848" height="1098.848" transform="matrix(0.707,-0.707,0.707,0.707,-48.126,224.605)" fill="url(#_lgradient_0)"/></g></g></g></svg>
